<?xml version="1.0" encoding="utf-8"?>
<!-- Generator: Adobe Illustrator 19.0.0, SVG Export Plug-In . SVG Version: 6.00 Build 0)  -->
<svg version="1.1" id="Layer_1" xmlns="http://www.w3.org/2000/svg" xmlns:xlink="http://www.w3.org/1999/xlink" x="0px" y="0px"
	 viewBox="0 0 612 792" style="enable-background:new 0 0 612 792;" xml:space="preserve">
<style type="text/css">
	.st0{fill:#FFFFFF;}
	.st1{fill:#58595B;}
	.st2{fill:#1C75BC;}
</style>
<g id="XMLID_24_">
	<g id="XMLID_62_">
		<polygon id="XMLID_73_" class="st0" points="288.4,423.1 275,423.1 272.3,427 278.3,427 278.3,442.8 283.6,442.8 283.6,427 
			288.4,427 		"/>
		<path id="XMLID_70_" class="st0" d="M298.1,423.1c-3.1,0-5.5,0.9-7.2,2.7c-1.7,1.8-2.6,4.2-2.6,7.4c0,3.2,0.9,5.6,2.6,7.4
			c1.7,1.8,4.1,2.7,7.2,2.7c3.1,0,5.4-0.9,7.2-2.7c1.7-1.8,2.6-4.2,2.6-7.4c0-3.2-0.9-5.6-2.6-7.4
			C303.6,424,301.2,423.1,298.1,423.1z M301.4,437.7c-0.8,1.1-1.9,1.7-3.3,1.7c-1.4,0-2.5-0.6-3.3-1.7c-0.8-1.1-1.2-2.7-1.2-4.6
			c0-1.9,0.4-3.4,1.2-4.6c0.8-1.1,1.9-1.7,3.3-1.7c1.3,0,2.4,0.6,3.2,1.7c0.8,1.1,1.2,2.7,1.2,4.6
			C302.6,435,302.2,436.6,301.4,437.7z"/>
		<path id="XMLID_67_" class="st0" d="M323.3,424.6c-1.3-1-3.4-1.5-6.1-1.5h-6.8l-2.5,3.5h2.2v16.1h5.2c0,0,0,0.1,0-7.3
			c1.1,0.2,1.7,0.4,2.2,0.5c2.5,0.3,4.4-0.6,5.7-1.7c1.3-1.1,2-2.7,2-4.9C325.3,427.2,324.6,425.7,323.3,424.6z M319.1,431.7
			c-0.5,0.5-1.3,0.7-2.4,0.7h-1.4v-5.7h1.4c1,0,1.8,0.3,2.4,0.8c0.5,0.5,0.8,1.2,0.8,2.2C320,430.5,319.7,431.2,319.1,431.7z"/>
		<path id="XMLID_66_" class="st0" d="M338.2,432.3c-0.7-0.5-2-1.1-4-1.8c-0.1-0.1-0.3-0.1-0.5-0.2c-0.4-0.1-0.7-0.2-0.9-0.3
			c-0.6-0.2-1.1-0.5-1.4-0.8c-0.3-0.3-0.5-0.7-0.5-1.1c0-0.6,0.3-1.1,0.9-1.4c0.6-0.3,1.4-0.5,2.5-0.5c0.7,0,1.4,0.1,2.1,0.3
			c0.1,0,0.2,0.1,0.3,0.1l2.4-3.4v0c-0.8-0.2-1.7-0.4-2.6-0.5c-0.9-0.1-1.8-0.2-2.8-0.2c-2.6,0-4.7,0.5-6.1,1.6
			c-1.4,1.1-2.1,2.6-2.1,4.6c0,1.4,0.4,2.5,1.2,3.4c0.8,0.9,2.1,1.7,4,2.3c0.1,0,0.3,0.1,0.4,0.1c0.2,0.1,0.4,0.1,0.7,0.2
			c1.9,0.7,2.9,1.4,2.9,2.2c0,0.7-0.3,1.2-0.9,1.6c-0.6,0.4-1.4,0.6-2.4,0.6c-0.8,0-1.6-0.1-2.5-0.3c-0.2,0-0.4-0.1-0.6-0.2
			l-2.5,3.6v0c1,0.3,2,0.5,2.9,0.6c1,0.1,2,0.2,3,0.2c2.7,0,4.8-0.6,6.2-1.7c1.4-1.1,2.2-2.8,2.2-5c0-0.9-0.2-1.7-0.5-2.4
			C339.4,433.5,338.9,432.8,338.2,432.3z"/>
		<path id="XMLID_63_" class="st0" d="M312.5,363c4.1-3.6,9-5.6,14.4-6h13.9V352l-61,0l-3.6,5.1h8.9c5.4,0.3,10.3,2.4,14.4,6
			c0.6,0.5,1.2,1.1,1.8,1.7c-0.3,0.5-0.6,1-0.9,1.5c-0.3,0.6-0.7,1.3-1,2c-0.1-0.1-0.1-0.2-0.2-0.2c-0.6-0.7-1.3-1.4-2-2.1
			c-3.8-3.4-8.6-5.2-13.7-5.2h-9.8l-5.3,7.6h15.2c7.2,0,13,5.9,13,13.1c0,1.3,0.2,31.1,0.2,33.9h7.3v-34c0-3.2,0.6-6.3,1.8-9.2
			c1.2,2.9,1.8,6.1,1.8,9.3v33.9h7.4c0-2.7,0.2-32.8,0.2-33.9c0-7.2,5.8-13.1,13-13.1h12.4v-7.6h-12.3c-5,0-9.9,1.8-13.7,5.2
			c-0.7,0.6-2.2,2.2-2.3,2.3c-0.3-0.7-0.6-1.3-1-2c-0.3-0.5-0.5-0.9-0.8-1.4l-0.1-0.1l0.1-0.1C311.4,364.1,312,363.5,312.5,363z
			 M306,358.8c-0.6-0.6-1.2-1.2-1.8-1.7h3.7C307.3,357.6,306.6,358.2,306,358.8z"/>
	</g>
	<g id="XMLID_25_">
		<path id="XMLID_61_" class="st1" d="M316.8,426.7h-1.4v5.7h1.4c1.1,0,1.8-0.2,2.4-0.7c0.5-0.5,0.8-1.1,0.8-2c0-1-0.3-1.7-0.8-2.2
			C318.6,426.9,317.8,426.7,316.8,426.7z"/>
		<path id="XMLID_54_" class="st1" d="M260.3,337.8v117.6h90.9V337.8H260.3z M283.6,442.8h-5.2V427h-6.1l2.8-3.9h13.4v3.9h-4.9
			V442.8z M305.3,440.6c-1.7,1.8-4.1,2.7-7.2,2.7c-3.1,0-5.5-0.9-7.2-2.7c-1.7-1.8-2.6-4.2-2.6-7.4c0-3.2,0.9-5.6,2.6-7.4
			c1.7-1.8,4.1-2.7,7.2-2.7c3.1,0,5.4,0.9,7.2,2.7c1.7,1.8,2.6,4.2,2.6,7.4C307.9,436.3,307,438.8,305.3,440.6z M323.3,434.2
			c-1.3,1.1-3.2,2-5.7,1.7c-0.6-0.1-1.1-0.2-2.2-0.5c0,7.5,0,7.3,0,7.3h-5.2v-16.1h-2.2l2.5-3.5h6.8c2.7,0,4.8,0.5,6.1,1.5
			c1.3,1,2,2.6,2,4.7C325.3,431.5,324.6,433.1,323.3,434.2z M338,441.5c-1.4,1.1-3.5,1.7-6.2,1.7c-1,0-2-0.1-3-0.2
			c-1-0.1-2-0.3-2.9-0.6v0l2.5-3.6c0.2,0.1,0.4,0.1,0.6,0.2c0.9,0.2,1.7,0.3,2.5,0.3c1,0,1.8-0.2,2.4-0.6c0.6-0.4,0.9-0.9,0.9-1.6
			c0-0.8-1-1.6-2.9-2.2c-0.3-0.1-0.5-0.2-0.7-0.2c-0.2-0.1-0.3-0.1-0.4-0.1c-1.9-0.7-3.2-1.5-4-2.3c-0.8-0.9-1.2-2-1.2-3.4
			c0-2,0.7-3.5,2.1-4.6c1.4-1.1,3.4-1.6,6.1-1.6c1,0,1.9,0.1,2.8,0.2c0.9,0.1,1.8,0.3,2.6,0.5v0l-2.4,3.4c-0.1,0-0.2-0.1-0.3-0.1
			c-0.7-0.2-1.5-0.3-2.1-0.3c-1.1,0-1.9,0.2-2.5,0.5c-0.6,0.3-0.9,0.8-0.9,1.4c0,0.4,0.2,0.8,0.5,1.1c0.3,0.3,0.8,0.6,1.4,0.8
			c0.2,0.1,0.5,0.2,0.9,0.3c0.2,0.1,0.3,0.1,0.5,0.2c2,0.7,3.3,1.3,4,1.8c0.7,0.5,1.2,1.1,1.5,1.8c0.3,0.7,0.5,1.5,0.5,2.4
			C340.2,438.7,339.5,440.4,338,441.5z M340.8,357.1h-13.9c-5.4,0.3-10.3,2.4-14.4,6c-0.6,0.5-1.1,1-1.7,1.6l-0.1,0.1l0.1,0.1
			c0.3,0.4,0.5,0.9,0.8,1.4c0.3,0.6,0.7,1.3,1,2c0.1-0.1,1.5-1.7,2.3-2.3c3.8-3.4,8.6-5.2,13.7-5.2h12.3v7.6h-12.4
			c-7.2,0-13,5.9-13,13.1c0,1.1-0.2,31.3-0.2,33.9h-7.4v-33.9c0-3.2-0.6-6.3-1.8-9.3c-1.2,2.9-1.8,6.1-1.8,9.2v34h-7.3
			c0-2.8-0.2-32.7-0.2-33.9c0-7.2-5.9-13.1-13-13.1h-15.2l5.3-7.6h9.8c5.1,0,9.9,1.8,13.7,5.2c0.7,0.7,1.4,1.4,2,2.1
			c0.1,0.1,0.1,0.2,0.2,0.2c0.3-0.7,0.6-1.3,1-2c0.3-0.5,0.6-1,0.9-1.5c-0.6-0.6-1.1-1.2-1.8-1.7c-4.1-3.6-9.1-5.6-14.4-6h-8.9
			l3.6-5.1l61,0V357.1z"/>
		<path id="XMLID_27_" class="st1" d="M298.1,426.8c-1.4,0-2.4,0.6-3.3,1.7c-0.8,1.1-1.2,2.7-1.2,4.6c0,1.9,0.4,3.4,1.2,4.6
			c0.8,1.1,1.9,1.7,3.3,1.7c1.4,0,2.4-0.6,3.3-1.7c0.8-1.1,1.2-2.7,1.2-4.6c0-1.9-0.4-3.4-1.2-4.6
			C300.6,427.4,299.5,426.8,298.1,426.8z"/>
		<path id="XMLID_26_" class="st2" d="M307.9,357.1h-3.7c0.6,0.5,1.3,1.1,1.8,1.7C306.6,358.2,307.3,357.6,307.9,357.1z"/>
	</g>
</g>
</svg>
