<?xml version="1.0" encoding="utf-8"?>
<!-- Generator: Adobe Illustrator 19.0.0, SVG Export Plug-In . SVG Version: 6.00 Build 0)  -->
<svg version="1.1" id="Layer_1" xmlns="http://www.w3.org/2000/svg" xmlns:xlink="http://www.w3.org/1999/xlink" x="0px" y="0px"
	 viewBox="0 0 500 650" style="enable-background:new 0 0 500 650;" xml:space="preserve">
<style type="text/css">
	.st0{fill:#FFFFFF;}
	.st1{fill:#1C75BC;}
</style>
<g id="XMLID_4_">
	<g id="XMLID_2_">
		<polygon id="XMLID_3_" class="st0" points="154.6,471.3 80.7,471.3 65.6,493 99,493 99,579.9 127.8,579.9 127.8,493 154.6,493 		
			"/>
		<path id="XMLID_38_" class="st0" d="M207.9,471.3c-16.8,0-30,4.9-39.5,14.7c-9.5,9.8-14.3,23.4-14.3,40.9
			c0,17.5,4.7,31.1,14.2,40.9c9.5,9.8,22.7,14.7,39.6,14.7c16.8,0,29.9-4.9,39.4-14.7c9.5-9.8,14.2-23.4,14.2-40.9
			c0-17.4-4.7-31-14.2-40.9C237.8,476.2,224.7,471.3,207.9,471.3z M225.8,552c-4.5,6.3-10.4,9.4-17.9,9.4c-7.5,0-13.5-3.2-18-9.5
			c-4.5-6.3-6.8-14.8-6.8-25.4c0-10.5,2.3-19,6.8-25.3c4.5-6.3,10.5-9.4,18-9.4c7.4,0,13.4,3.2,17.8,9.5c4.5,6.3,6.7,14.7,6.7,25.2
			C232.5,537.2,230.2,545.7,225.8,552z"/>
		<path id="XMLID_41_" class="st0" d="M346.2,479.7c-7.3-5.6-18.4-8.5-33.6-8.5h-37.2l-13.6,19.6H274v89h28.8c0,0,0,0.8,0-40.4
			c6.2,1.4,9.2,2.1,12.3,2.5c13.5,1.8,24-3.1,31.2-9.2c7.1-6.1,10.7-15.1,10.7-26.9C357,494.1,353.4,485.4,346.2,479.7z
			 M323.5,518.6c-2.9,2.5-7.3,3.8-13.1,3.8h-7.6v-31.6h7.7c5.7,0,10,1.4,12.9,4.2c2.9,2.8,4.4,6.9,4.4,12.3
			C327.9,512.3,326.4,516.1,323.5,518.6z"/>
		<path id="XMLID_42_" class="st0" d="M428.2,522.1c-3.8-2.8-11.1-6.1-22.1-9.8c-0.8-0.3-1.7-0.6-2.6-0.9c-2.1-0.7-3.7-1.2-4.8-1.5
			c-3.3-1.1-5.9-2.6-7.5-4.3c-1.7-1.7-2.5-3.7-2.5-6c0-3.3,1.6-5.8,4.9-7.7c3.3-1.9,7.8-2.8,13.6-2.8c3.8,0,7.7,0.5,11.8,1.4
			c0.6,0.1,1.2,0.3,1.9,0.5l13-18.6v0c-4.6-1.3-9.3-2.3-14.2-3c-4.9-0.6-10-1-15.4-1c-14.5,0-25.6,2.9-33.4,8.8
			c-7.7,5.9-11.6,14.2-11.6,25.2c0,7.6,2.2,13.9,6.6,18.8c4.4,4.9,11.8,9.3,22.1,13c0.6,0.2,1.4,0.5,2.2,0.8c1,0.4,2.2,0.8,3.6,1.3
			c10.5,3.7,15.8,7.8,15.8,12.3c0,3.7-1.6,6.6-4.9,8.7c-3.3,2.1-7.8,3.2-13.5,3.2c-4.3,0-8.8-0.6-13.6-1.8c-1.1-0.3-2.2-0.6-3.3-0.9
			l-13.9,19.9v0c5.4,1.5,10.8,2.7,16.2,3.4c5.5,0.8,10.9,1.1,16.3,1.1c15,0,26.5-3.2,34.4-9.4c7.9-6.3,11.9-15.4,11.9-27.4
			c0-5.1-0.9-9.5-2.7-13.3C434.8,528.4,432,525.1,428.2,522.1z"/>
		<path id="XMLID_45_" class="st0" d="M287.1,139.3c22.3-19.7,49.7-31.1,79.2-33h76.3V78.2l-335.6-0.1l-19.7,28.2h49.1
			c29.5,1.9,56.9,13.3,79.3,33.1c3.4,3,6.7,6.1,9.7,9.4c-1.6,2.6-3.2,5.3-4.8,8.3c-1.9,3.5-3.7,7.2-5.3,10.9
			c-0.4-0.4-0.7-0.9-1.1-1.3c-3.4-4-7.2-7.9-11.2-11.6c-20.8-18.5-47.5-28.7-75.3-28.7H73.5L44.3,168h83.8
			c39.4,0.2,71.6,32.6,71.7,72.4c0,7,1.2,172,1.3,187.6h40.2V240.3c0-17.5,3.5-34.9,10.1-51c6.6,16.2,10.1,33.6,10.1,51.2v187.6H302
			c0.1-14.7,1.1-181.3,1.1-187.6c0-39.7,32.2-72.2,71.6-72.4h68v-41.7h-67.5c-27.8,0-54.5,10.2-75.3,28.7
			c-3.9,3.5-11.9,12.3-12.4,12.9c-1.7-3.7-3.4-7.3-5.3-10.9c-1.4-2.6-2.9-5.2-4.3-7.5l-0.4-0.7l0.6-0.7
			C280.8,145.1,283.9,142.1,287.1,139.3z M251.4,115.7c-3.3-3.3-6.7-6.4-10.1-9.4h20.3C258.1,109.3,254.7,112.5,251.4,115.7z"/>
	</g>
	<g id="XMLID_17_">
		<path id="XMLID_18_" class="st1" d="M310.5,490.9h-7.7v31.6h7.6c5.8,0,10.1-1.3,13.1-3.8c2.9-2.5,4.4-6.3,4.4-11.3
			c0-5.4-1.5-9.5-4.4-12.3C320.5,492.2,316.2,490.9,310.5,490.9z"/>
		<path id="XMLID_47_" class="st1" d="M0,0v650h500V0H0z M127.8,579.9H99V493H65.6l15.2-21.7h73.9V493h-26.8V579.9z M247.3,567.8
			c-9.5,9.8-22.6,14.7-39.4,14.7c-16.9,0-30.1-4.9-39.6-14.7c-9.5-9.8-14.2-23.4-14.2-40.9c0-17.4,4.8-31,14.3-40.9
			c9.5-9.8,22.7-14.7,39.5-14.7c16.8,0,29.9,4.9,39.4,14.7c9.5,9.8,14.2,23.4,14.2,40.9C261.4,544.4,256.7,558,247.3,567.8z
			 M346.3,532.8c-7.2,6.1-17.7,11-31.2,9.2c-3.2-0.4-6.1-1.2-12.3-2.5c0,41.2,0,40.4,0,40.4H274v-89h-12.2l13.6-19.6h37.2
			c15.1,0,26.3,2.8,33.6,8.5c7.3,5.6,10.9,14.3,10.9,26.1C357,517.7,353.5,526.6,346.3,532.8z M427.4,573
			c-7.9,6.3-19.4,9.4-34.4,9.4c-5.4,0-10.9-0.4-16.3-1.1c-5.5-0.8-10.9-1.9-16.2-3.4v0l13.9-19.9c1.1,0.3,2.2,0.6,3.3,0.9
			c4.8,1.2,9.3,1.8,13.6,1.8c5.7,0,10.2-1.1,13.5-3.2c3.3-2.1,4.9-5,4.9-8.7c0-4.5-5.3-8.6-15.8-12.3c-1.4-0.5-2.6-0.9-3.6-1.3
			c-0.9-0.3-1.6-0.6-2.2-0.8c-10.3-3.7-17.6-8.1-22.1-13c-4.4-4.9-6.6-11.2-6.6-18.8c0-10.9,3.9-19.3,11.6-25.2
			c7.8-5.9,18.9-8.8,33.4-8.8c5.3,0,10.4,0.3,15.4,1c4.9,0.6,9.7,1.6,14.2,3v0l-13,18.6c-0.6-0.2-1.2-0.4-1.9-0.5
			c-4-0.9-8-1.4-11.8-1.4c-5.8,0-10.4,0.9-13.6,2.8c-3.3,1.9-4.9,4.4-4.9,7.7c0,2.3,0.8,4.3,2.5,6c1.7,1.7,4.2,3.1,7.5,4.3
			c1.1,0.4,2.7,0.8,4.8,1.5c0.9,0.3,1.7,0.6,2.6,0.9c10.9,3.7,18.3,6.9,22.1,9.8c3.8,2.9,6.6,6.3,8.4,10.1c1.8,3.8,2.7,8.2,2.7,13.3
			C439.3,557.6,435.3,566.7,427.4,573z M442.7,106.3h-76.3c-29.5,1.9-56.9,13.3-79.2,33c-3.2,2.8-6.3,5.7-9.1,8.8l-0.6,0.7l0.4,0.7
			c1.5,2.4,2.9,4.9,4.3,7.5c1.9,3.5,3.7,7.2,5.3,10.9c0.5-0.6,8.5-9.4,12.4-12.9c20.8-18.5,47.5-28.7,75.3-28.7h67.5V168h-68
			c-39.5,0.2-71.6,32.7-71.6,72.4c0,6.3-1,172.9-1.1,187.6h-40.5V240.5c0-17.6-3.5-35-10.1-51.2c-6.6,16.1-10.1,33.5-10.1,51v187.8
			h-40.2c-0.1-15.6-1.3-180.6-1.3-187.6c-0.1-39.8-32.3-72.2-71.7-72.4H44.3l29.1-41.7h54.2c27.8,0,54.5,10.2,75.3,28.7
			c4.1,3.6,7.9,7.5,11.2,11.6c0.4,0.4,0.7,0.9,1.1,1.3c1.7-3.7,3.4-7.3,5.3-10.9c1.6-3,3.2-5.7,4.8-8.3c-3.1-3.3-6.3-6.4-9.7-9.4
			c-22.4-19.7-49.8-31.2-79.3-33.1H87.4l19.7-28.2l335.6,0.1V106.3z"/>
		<path id="XMLID_52_" class="st1" d="M207.9,491.9c-7.5,0-13.5,3.1-18,9.4c-4.5,6.3-6.8,14.7-6.8,25.3c0,10.6,2.3,19.1,6.8,25.4
			c4.5,6.3,10.5,9.5,18,9.5c7.5,0,13.4-3.1,17.9-9.4c4.5-6.3,6.7-14.8,6.7-25.4c0-10.5-2.2-18.9-6.7-25.2
			C221.2,495.1,215.3,491.9,207.9,491.9z"/>
		<path id="XMLID_53_" class="st1" d="M261.6,106.3h-20.3c3.5,3,6.9,6.1,10.1,9.4C254.7,112.5,258.1,109.3,261.6,106.3z"/>
	</g>
</g>
</svg>
